# xmcd
#
# Track frame offsets: 
#        150
#        12109
#        18068
#        35545
#        55118
#        71631
#
# Disc length: 1142 seconds
#
# Revision: 1
# Processed by: cddbd v1.5.2PL0 Copyright (c) Steve Scherf et al.
# Submitted via: ExactAudioCopyFreeDBPlugin 1.0
#
DISCID=3f047406
DTITLE=Andrea Balency Trio - Mizraim
DYEAR=2010
DGENRE=Jazz
TTITLE0=Mizraim
TTITLE1=Mizraim II
TTITLE2=Mout
TTITLE3=Laila Tiaba
TTITLE4=Una Linea Va
TTITLE5=Petepre
EXTD=
EXTT0=
EXTT1=
EXTT2=
EXTT3=
EXTT4=
EXTT5=
PLAYORDER=
